<svg xmlns="http://www.w3.org/2000/svg" xmlns:xlink="http://www.w3.org/1999/xlink" viewBox="0 0 79.98 80"><defs><style>.cls-1{fill:#e3f5ef;}.cls-2{fill:none;}.cls-3{fill:url(#linear-gradient);}</style><linearGradient id="linear-gradient" x1="39.99" y1="70.51" x2="39.99" y2="9.49" gradientUnits="userSpaceOnUse"><stop offset="0" stop-color="#2c4ac8"/><stop offset="1" stop-color="#1dbbff"/></linearGradient></defs><title>gioi-thieu-bt</title><g id="Layer_2" data-name="Layer 2"><g id="Layer_1-2" data-name="Layer 1"><path class="cls-1" d="M80,44.54c0,14.59-11.57,28.19-30.07,33.91-23.87,7.38-71.33-13-39-31.32C40.88,30.19,34.4,12.61,45.05,4,65.8-12.69,80,27,80,44.54Z"/><rect class="cls-2" x="4.75" y="4.75" width="70.49" height="70.49"/><path class="cls-3" d="M63.52,23C59,19.15,55,15.85,55.14,11.23a1.7,1.7,0,1,0-3.4-.08c-.14,6.25,4.81,10.41,9.6,14.42C67.7,30.91,73.71,36,70.57,45.93A13.85,13.85,0,0,1,62,54.86a18.71,18.71,0,0,1-16-1.67,17.24,17.24,0,0,1-3.61-2.95c-.35-.38-.69-.78-1-1.19L40,47.31l-1.34,1.74c-.32.41-.66.81-1,1.19A17.44,17.44,0,0,1,34,53.19a18.76,18.76,0,0,1-16,1.67,13.87,13.87,0,0,1-8.6-8.93c-3.13-10,2.87-15,9.23-20.36,4.79-4,9.74-8.17,9.6-14.42A1.67,1.67,0,0,0,26.5,9.49a1.7,1.7,0,0,0-1.66,1.74c.1,4.62-3.83,7.92-8.38,11.74C10.18,28.24,2.36,34.81,6.17,47A17.18,17.18,0,0,0,16.83,58a22.15,22.15,0,0,0,17.76-1.27,8,8,0,0,0,10.8,0,22.57,22.57,0,0,0,10.42,2.55A21,21,0,0,0,63.16,58,17.16,17.16,0,0,0,73.81,47C77.63,34.81,69.81,28.24,63.52,23ZM37.62,54.84l.16-.14c.27-.21.54-.43.79-.66l.36-.3c.36-.34.72-.68,1.06-1,.34.36.69.7,1.06,1l.36.32c.26.22.51.44.78.65l.17.14A4.72,4.72,0,0,1,37.62,54.84Zm.67-27.43V11.19a1.7,1.7,0,1,1,3.4,0V27.41a1.7,1.7,0,1,1-3.4,0Zm0,9.66V33.21a1.7,1.7,0,1,1,3.4,0v3.86a1.7,1.7,0,0,1-3.4,0Zm2,25.14c.78,1.08,2.72,3.93,2.72,5.27a3,3,0,0,1-6.06,0c0-1.34,1.94-4.19,2.72-5.27a.38.38,0,0,1,.31-.16A.37.37,0,0,1,40.3,62.21Z"/></g></g></svg>