<svg xmlns="http://www.w3.org/2000/svg" xmlns:xlink="http://www.w3.org/1999/xlink" viewBox="0 0 79.98 80"><defs><style>.cls-1{fill:#e3f5ef;}.cls-2{fill:none;}.cls-3{fill:url(#linear-gradient);}</style><linearGradient id="linear-gradient" x1="39.99" y1="74.83" x2="39.99" y2="5.17" gradientUnits="userSpaceOnUse"><stop offset="0" stop-color="#2c4ac8"/><stop offset="1" stop-color="#1dbbff"/></linearGradient></defs><title>gioi-thieu-bxh</title><g id="Layer_2" data-name="Layer 2"><g id="Layer_1-2" data-name="Layer 1"><path class="cls-1" d="M80,44.54c0,14.59-11.57,28.19-30.07,33.91-23.87,7.38-71.33-13-39-31.32C40.88,30.19,34.4,12.61,45.05,4,65.8-12.69,80,27,80,44.54Z"/><rect class="cls-2" x="4.75" y="4.75" width="70.49" height="70.49"/><path class="cls-3" d="M64.93,47.41l-7.41-1.57c0-.08,0-.17.07-.26a30.59,30.59,0,0,0,.33-11.7l7-.81a1.7,1.7,0,0,0-.39-3.37l-7.38.85A30.09,30.09,0,0,0,53.8,23c-.25-.4-.52-.77-.79-1.14L60,15.09a1.7,1.7,0,1,0-2.38-2.43L50.7,19.4a16,16,0,0,0-8.44-3.78V6.86a1.7,1.7,0,0,0-3.4,0v8.7a15.88,15.88,0,0,0-7.13,2.37c-.2.12-.39.27-.59.41l-4.91-6a1.7,1.7,0,0,0-2.64,2.14l5,6.11a15.88,15.88,0,0,0-3.95,7.35,16.25,16.25,0,0,0-.39,2.92l-8.9-.29a1.69,1.69,0,0,0-1.76,1.64,1.71,1.71,0,0,0,1.65,1.75l9.22.31A16,16,0,0,0,26.63,40a11.91,11.91,0,0,1,1.7,7.62l-9.53-.74a1.7,1.7,0,1,0-.26,3.39l8.93.69c-.13.31-.26.6-.39.84l-.15.29a15.45,15.45,0,0,0-1.5,4.78,10.14,10.14,0,0,0,.63,5L19.73,65.5a1.7,1.7,0,0,0,.85,3.17,1.65,1.65,0,0,0,.85-.23l6.42-3.71c.15.17.3.35.47.52A10.87,10.87,0,0,0,36,68.37a12.83,12.83,0,0,0,3.58-.53l1.83,5.81a1.68,1.68,0,0,0,1.62,1.18,1.55,1.55,0,0,0,.51-.08,1.7,1.7,0,0,0,1.11-2.13l-1.92-6.08A25.51,25.51,0,0,0,49.58,61l5,5a1.67,1.67,0,0,0,1.19.49A1.7,1.7,0,0,0,57,63.53l-5.26-5.2a35.5,35.5,0,0,0,4.85-9.21l7.66,1.62.35,0a1.7,1.7,0,0,0,.35-3.36ZM36,65a7.44,7.44,0,0,1-5.31-2.15,6.58,6.58,0,0,1-1.91-5.57A12.14,12.14,0,0,1,30,53.54l.08-.17a12.48,12.48,0,0,0,.56-1.23,3.54,3.54,0,0,0,.14-.33,14.65,14.65,0,0,0,.59-1.92.11.11,0,0,0,0,0,15.33,15.33,0,0,0-1.88-11.65A12.62,12.62,0,1,1,50.92,24.83a26.62,26.62,0,0,1,3.35,20c-.1.44-.22.88-.34,1.32a1.76,1.76,0,0,0-.26.61,2.53,2.53,0,0,0,0,.38,31.89,31.89,0,0,1-6.36,11.32C43.61,62.67,39.61,65,36,65ZM46.21,30.53A5.58,5.58,0,1,1,40.63,25,5.57,5.57,0,0,1,46.21,30.53ZM43.05,53a4,4,0,1,1-4-4A4,4,0,0,1,43.05,53Zm8.37-9.17a3.26,3.26,0,1,1-3.26-3.26A3.26,3.26,0,0,1,51.42,43.86Z"/></g></g></svg>