<svg xmlns="http://www.w3.org/2000/svg" xmlns:xlink="http://www.w3.org/1999/xlink" viewBox="0 0 79.98 80"><defs><style>.cls-1{fill:#e3f5ef;}.cls-2{fill:none;}.cls-3{fill:url(#linear-gradient);}</style><linearGradient id="linear-gradient" x1="39.99" y1="74.83" x2="39.99" y2="5.17" gradientUnits="userSpaceOnUse"><stop offset="0" stop-color="#2c4ac8"/><stop offset="1" stop-color="#1dbbff"/></linearGradient></defs><title>gioi-thieu-pt</title><g id="Layer_2" data-name="Layer 2"><g id="Layer_1-2" data-name="Layer 1"><path class="cls-1" d="M80,44.54c0,14.59-11.57,28.19-30.07,33.91-23.87,7.38-71.33-13-39-31.32C40.88,30.19,34.4,12.61,45.05,4,65.8-12.69,80,27,80,44.54Z"/><rect class="cls-2" x="4.75" y="4.75" width="70.49" height="70.49"/><path class="cls-3" d="M61.4,56.23A16.75,16.75,0,0,0,48.77,40.08C46.43,33,42.37,28.2,37.55,26.71A11,11,0,0,0,34.12,5.17c-4.81,0-8.64,3.24-10,8.46q0,.19-.09.48c-.13.84-.27,1.71-3,1.56l-2.41-.12.69,2.3c1.23,4.13,6.18,7.53,10.94,8.83A6.54,6.54,0,0,0,27,28.8c-4.19,5-1.08,12.05-.1,14L24.56,71.89a2.71,2.71,0,0,0,2.71,2.94H49.92a2.71,2.71,0,0,0,2.71-3l-.09-.91A16.54,16.54,0,0,0,61.4,56.23ZM23.63,18.85a4.74,4.74,0,0,0,3.76-4.21c0-.07,0-.12,0-.16.74-2.86,2.9-5.92,6.71-5.92a7.65,7.65,0,1,1,0,15.3A15.17,15.17,0,0,1,23.63,18.85Zm27,49.26a2.71,2.71,0,0,0-1.5,2.69l.06.64H28L30.4,42l-.27-.45c0-.07-3.77-6.67-.5-10.59.88-1.05,2-1.37,4.62-1.37h0c7.08,0,10.51,9.07,11.39,11.86a2.71,2.71,0,0,0,2,1.83A13.32,13.32,0,0,1,58,56.23,13.18,13.18,0,0,1,50.62,68.11Zm5.23-14.17c.11,4.82-6.59,8.15-6.59,8.15s-6.7-3.33-6.6-8.15a3.3,3.3,0,0,1,3.68-3.13,3.05,3.05,0,0,1,2.92,2,3,3,0,0,1,2.91-2A3.3,3.3,0,0,1,55.85,53.94Z"/></g></g></svg>