<svg xmlns="http://www.w3.org/2000/svg" xmlns:xlink="http://www.w3.org/1999/xlink" viewBox="0 0 79.98 80"><defs><style>.cls-1{fill:#e3f5ef;}.cls-2{fill:none;}.cls-3{fill:url(#linear-gradient);}</style><linearGradient id="linear-gradient" x1="39.99" y1="74.83" x2="39.99" y2="5.17" gradientUnits="userSpaceOnUse"><stop offset="0" stop-color="#2c4ac8"/><stop offset="1" stop-color="#1dbbff"/></linearGradient></defs><title>gioi-thieu-pk</title><g id="Layer_2" data-name="Layer 2"><g id="Layer_1-2" data-name="Layer 1"><path class="cls-1" d="M80,44.54c0,14.59-11.57,28.19-30.07,33.91-23.87,7.38-71.33-13-39-31.32C40.88,30.19,34.4,12.61,45.05,4,65.8-12.69,80,27,80,44.54Z"/><rect class="cls-2" x="4.75" y="4.75" width="70.49" height="70.49"/><path class="cls-3" d="M62.57,27.74A22.58,22.58,0,1,0,38.29,50.25V61.6H29.84a1.7,1.7,0,0,0,0,3.4h8.45v8.14a1.7,1.7,0,0,0,3.4,0V65h8.45a1.7,1.7,0,1,0,0-3.4H41.69V50.25A22.6,22.6,0,0,0,62.57,27.74Zm-41.76,0A19.18,19.18,0,1,1,40,46.93,19.2,19.2,0,0,1,20.81,27.74Z"/></g></g></svg>