<svg xmlns="http://www.w3.org/2000/svg" xmlns:xlink="http://www.w3.org/1999/xlink" viewBox="0 0 79.98 80"><defs><style>.cls-1{fill:#e3f5ef;}.cls-2{fill:none;}.cls-3{fill:url(#linear-gradient);}</style><linearGradient id="linear-gradient" x1="39.99" y1="75.25" x2="39.99" y2="4.75" gradientUnits="userSpaceOnUse"><stop offset="0" stop-color="#2c4ac8"/><stop offset="1" stop-color="#1dbbff"/></linearGradient></defs><title>gioi-thieu-tmh</title><g id="Layer_2" data-name="Layer 2"><g id="Layer_1-2" data-name="Layer 1"><path class="cls-1" d="M80,44.54c0,14.59-11.57,28.19-30.07,33.91-23.87,7.38-71.33-13-39-31.32C40.88,30.19,34.4,12.61,45.05,4,65.8-12.69,80,27,80,44.54Z"/><rect class="cls-2" x="4.75" y="4.75" width="70.49" height="70.49"/><path class="cls-3" d="M24.68,56.37a1.44,1.44,0,0,0-1-.39,1.43,1.43,0,0,0-1.06.47c-.24.25-5.71,6.21-5.71,12a6.77,6.77,0,0,0,13.54,0C30.46,61.78,24.92,56.59,24.68,56.37Zm-1,15.48a3.37,3.37,0,0,1-3.37-3.37c0-2.79,1.91-6,3.45-8.07,1.38,1.73,3.3,4.73,3.3,8.07A3.38,3.38,0,0,1,23.69,71.85ZM57.21,33.68h-.94A81.43,81.43,0,0,0,50.7,15.47C47.42,8.36,43.82,4.75,40,4.75S32.56,8.36,29.28,15.47a82,82,0,0,0-5.57,18.21h-.93a9.4,9.4,0,0,0-9.39,9.39v.16a9.4,9.4,0,0,0,9.39,9.39h2.8a17.28,17.28,0,0,0,28.83,0h2.8a9.4,9.4,0,0,0,9.39-9.39v-.16A9.4,9.4,0,0,0,57.21,33.68Zm6,9.55a6,6,0,0,1-6,6H52.59l-1,1.52a13.88,13.88,0,0,1-23.18,0l-1-1.52H22.78a6,6,0,0,1-6-6v-.16a6,6,0,0,1,6-6h3.75l.52-2.78a77.87,77.87,0,0,1,5.32-17.4c2.56-5.56,5.34-8.75,7.62-8.75s5.07,3.19,7.63,8.75a78.73,78.73,0,0,1,5.31,17.4l.52,2.78h3.76a6,6,0,0,1,6,6Z"/></g></g></svg>